<?xml version="1.0" standalone="no"?>
<!DOCTYPE svg PUBLIC "-//W3C//DTD SVG 20010904//EN"
 "http://www.w3.org/TR/2001/REC-SVG-20010904/DTD/svg10.dtd">
<svg version="1.0" xmlns="http://www.w3.org/2000/svg"
 width="500.000000pt" height="500.000000pt" viewBox="0 0 500.000000 500.000000"
 preserveAspectRatio="xMidYMid meet">
<metadata>
Created by potrace 1.14, written by Peter Selinger 2001-2017
</metadata>
<g transform="translate(0.000000,500.000000) scale(0.100000,-0.100000)"
fill="#000000" stroke="none">
<path d="M4685 4893 c-555 -44 -1031 -189 -1510 -461 -115 -65 -374 -237 -486
-323 -542 -415 -1068 -1014 -1523 -1737 -385 -612 -771 -1419 -1014 -2125
l-51 -147 149 0 149 0 448 748 449 747 505 5 c559 6 546 5 678 77 91 49 162
106 272 219 208 215 344 418 773 1153 373 639 527 883 726 1151 184 247 402
489 580 643 l65 56 -85 -1 c-47 -1 -103 -3 -125 -5z"/>
</g>
</svg>
