<svg width="960" height="960" viewBox="0 0 960 960" fill="none" xmlns="http://www.w3.org/2000/svg">
<path fill-rule="evenodd" clip-rule="evenodd" d="M587.493 258.272C587.493 258.272 554.188 233.472 575.444 213.621C585.565 204.183 593.601 205.81 599.231 210.119L601.851 209.205C616.571 221.676 647.798 236.054 707.279 219.065C710.673 237.992 717.37 249.76 724.379 257.08L724.268 257.19C720.593 262.727 716.908 268.275 713.093 273.727C713.093 273.727 719.629 282.695 719.449 292.995L720.031 293.005C720.031 293.005 777.444 299.391 805.086 261.116C832.728 222.841 784.533 163.309 784.533 163.309C784.533 163.309 712.24 78.2573 619.393 97.3923C526.546 116.527 474.093 193.992 474.093 193.992C474.093 193.992 417.382 271.746 392.582 287.34C383.639 292.963 364.928 302.639 342.295 314.343C302.161 335.097 249.698 362.227 217.522 384.434C167.201 419.165 62.4116 495.012 55.2126 569.424C48.2411 641.485 66.6652 652.133 90.4416 665.874C91.2175 666.322 91.9991 666.774 92.7856 667.231C136.646 692.742 287.786 687.251 383.666 683.767C395.071 683.352 405.695 682.966 415.264 682.664L415.505 681.398C296.131 658.729 249.044 568.262 291.944 458.798C340.852 333.998 489.808 326.319 489.808 326.319C489.808 326.319 498.2 314.973 507.408 309.641C516.616 304.309 523.001 312.854 523.001 312.854C523.001 312.854 527.57 317.238 534.317 323.738L587.493 258.272ZM761.494 156.57C760.909 155.984 759.959 155.984 759.373 156.57C758.787 157.156 758.787 158.106 759.373 158.691C769.203 168.522 780.981 183.464 789.342 199.177C797.747 214.971 802.497 231.165 798.86 243.681C795.217 256.222 784.792 264.56 775.028 269.803C770.169 272.412 765.538 274.22 762.12 275.374C760.413 275.951 759.012 276.364 758.043 276.631C757.558 276.765 757.181 276.862 756.928 276.926C756.802 276.958 756.706 276.981 756.643 276.996L756.574 277.012L756.558 277.016L756.556 277.016C755.748 277.2 755.242 278.004 755.426 278.812C755.61 279.62 756.414 280.125 757.222 279.941L756.889 278.479C757.222 279.941 757.222 279.941 757.223 279.941L757.225 279.941L757.232 279.939L757.255 279.934L757.34 279.914C757.413 279.896 757.519 279.87 757.657 279.836C757.932 279.767 758.331 279.664 758.84 279.523C759.858 279.243 761.313 278.814 763.08 278.217C766.612 277.023 771.405 275.154 776.447 272.446C786.484 267.057 797.764 258.206 801.741 244.518C805.725 230.807 800.463 213.689 791.991 197.767C783.475 181.764 771.51 166.586 761.494 156.57Z" fill="#171717"/>
<path fill-rule="evenodd" clip-rule="evenodd" d="M769.074 625.746L757.774 586.446L737.406 515.561L705.506 524.779L725.116 591.309L737.195 632.275C740.197 632.716 743.226 632.95 746.261 632.975C754.259 633.101 757.769 629.678 760.409 627.105C762.373 625.19 763.854 623.745 766.343 624.581C767.283 624.895 768.196 625.285 769.074 625.746ZM733.76 527.193C733.533 526.396 732.702 525.935 731.906 526.163C731.109 526.391 730.648 527.222 730.876 528.018L756.435 617.322C756.663 618.119 757.494 618.58 758.29 618.352C759.087 618.124 759.547 617.293 759.319 616.497L733.76 527.193Z" fill="#171717"/>
<path d="M770.817 656.832L769.642 675.026L762.082 667.565L761.057 667.144C762.616 665.575 763.83 663.697 764.622 661.631C766.953 660.409 769.05 658.784 770.817 656.832V656.832Z" fill="#171717"/>
<path d="M692.156 300.185C696.747 295.24 701.08 290.062 705.138 284.672H705.149C705.149 284.672 710.349 293.949 705.149 300.185C704.752 300.67 704.3 301.108 703.803 301.49C698.699 305.436 692.156 300.185 692.156 300.185Z" fill="white" fill-opacity="0.96"/>
<path d="M658.088 773.544L627.965 847.844C625.214 856.579 621.138 863.086 612.723 863.086H415.975C407.561 863.086 401.275 860.286 401.275 851.87L603.264 851.86C603.264 851.86 613.536 852.282 616.377 846.66C620.233 839.019 652.092 761.434 652.092 761.434C653.958 762.853 655.471 764.684 656.511 766.785C657.551 768.886 658.091 771.199 658.088 773.544V773.544Z" fill="#171717"/>
<path d="M594.881 229.717C590.744 233.643 589.037 236.836 588.381 239.105L587.487 238.874C587.487 238.874 576.211 230.64 581.587 226.474C586.963 222.308 594.881 229.717 594.881 229.717Z" fill="white" fill-opacity="0.96"/>
<path d="M291.943 458.799C340.851 333.999 489.806 326.32 489.806 326.32C489.806 326.32 498.19 314.984 507.406 309.642C516.622 304.3 523 312.855 523 312.855C523 312.855 527.569 317.243 534.316 323.739C545.331 334.322 562.149 350.498 574.439 362.296C580.996 368.591 586.257 373.642 588.667 375.931C598.346 385.148 591.749 382.307 588.908 395.069C586.067 407.831 608.758 570.129 608.758 570.129L608.678 572.499L659.785 574.276L683.18 575.089L681.243 603.765L676.483 674.211L676.092 679.985C676.092 679.985 668.41 681.591 648.921 683.308C619.921 685.858 564.78 688.66 469.845 686.802C451.612 686.527 433.434 684.72 415.504 681.402C296.13 658.728 249.039 568.261 291.943 458.799Z" fill="white" fill-opacity="0.96"/>
<path d="M518.794 784.258C518.794 784.258 575.374 780.472 572.071 806.026C568.768 831.58 512.057 818.517 512.057 818.517L518.794 784.258Z" fill="#171717"/>
<path d="M534.316 323.739L587.492 258.273C587.492 258.273 554.192 233.473 575.443 213.622C585.564 204.184 593.597 205.811 599.23 210.122C605.445 214.861 608.758 222.844 608.758 222.844" stroke="#171717" stroke-width="3" stroke-linecap="round" stroke-linejoin="round"/>
<path d="M574.621 362.104C580.163 350.226 587.182 337.063 599.843 333.69C606.882 331.802 614.322 333.427 621.602 333.829C642.808 335.004 663.431 325.567 679.808 311.93C680.721 311.177 681.615 310.404 682.499 309.621C685.872 306.629 689.091 303.482 692.158 300.182C696.749 295.238 701.082 290.06 705.14 284.669C707.872 281.084 710.512 277.43 713.093 273.725C716.908 268.273 720.593 262.725 724.268 257.188" stroke="#171717" stroke-width="3" stroke-linecap="round" stroke-linejoin="round"/>
<path d="M720.03 293.004C720.03 293.004 777.443 299.39 805.085 261.115C832.727 222.84 784.532 163.308 784.532 163.308C784.532 163.308 712.238 78.2531 619.392 97.3911C526.546 116.529 474.092 193.991 474.092 193.991C474.092 193.991 417.392 271.746 392.581 287.339C367.77 302.932 267.845 349.702 217.521 384.433C167.197 419.164 62.4221 495.004 55.2121 569.426C48.0021 643.848 67.8941 652.764 92.7851 667.233C141.864 695.779 325.258 685.507 415.263 682.666" stroke="#171717" stroke-width="3" stroke-linecap="round" stroke-linejoin="round"/>
<path d="M608.758 570.129C608.758 570.129 586.076 407.829 588.908 395.069C591.74 382.309 598.346 385.148 588.667 375.931C586.257 373.642 580.996 368.591 574.439 362.296C562.149 350.496 545.331 334.322 534.316 323.739C527.569 317.239 523 312.855 523 312.855C523 312.855 516.615 304.31 507.407 309.642C498.199 314.974 489.807 326.32 489.807 326.32C489.807 326.32 340.851 333.999 291.943 458.799C249.043 568.263 296.13 658.73 415.504 681.399C433.435 684.717 451.612 686.523 469.845 686.799C564.78 688.657 619.924 685.855 648.921 683.305C668.41 681.588 676.092 679.982 676.092 679.982L676.483 674.208L681.243 603.762L683.18 575.086L659.785 574.273L608.678 572.499L521.555 569.466L479.765 568.01C479.765 568.01 383.374 551.704 392.581 481.539" stroke="#171717" stroke-width="3" stroke-linecap="round" stroke-linejoin="round"/>
<path d="M564.107 501.381L521.555 569.467" stroke="#171717" stroke-width="3" stroke-linecap="round" stroke-linejoin="round"/>
<path d="M707.277 219.064C647.796 236.053 616.569 221.675 601.849 209.204C593.649 202.256 590.564 195.91 590.564 195.91" stroke="#171717" stroke-width="3" stroke-linecap="round" stroke-linejoin="round"/>
<path d="M748.384 269.148C748.384 269.148 735.943 269.148 724.377 257.079C717.368 249.759 710.671 237.991 707.277 219.064" stroke="#171717" stroke-width="3" stroke-linecap="round" stroke-linejoin="round"/>
<path d="M588.206 242.92C587.882 241.659 587.945 240.33 588.387 239.105C589.039 236.836 590.746 233.643 594.887 229.717C595.379 229.245 595.911 228.763 596.474 228.271" stroke="#171717" stroke-width="3" stroke-linecap="round" stroke-linejoin="round"/>
<path d="M713.092 273.727C713.092 273.727 719.628 282.694 719.448 292.995C719.423 295.775 718.849 298.522 717.758 301.079C716.667 303.636 715.081 305.953 713.092 307.895C711.382 309.645 709.439 311.152 707.318 312.373C694.155 319.873 679.807 311.931 679.807 311.931" stroke="#171717" stroke-width="3" stroke-linecap="round" stroke-linejoin="round"/>
<path d="M659.786 267.26C659.786 267.26 656.486 274.339 656.486 279.068C656.486 283.797 658.143 293.245 642.078 285.685" stroke="#171717" stroke-width="3" stroke-linecap="round" stroke-linejoin="round"/>
<path d="M612.775 304.581C612.775 304.581 585.845 295.846 594.822 269.148" stroke="#171717" stroke-width="3" stroke-linecap="round" stroke-linejoin="round"/>
<path d="M642.074 244.106L649.443 232.529" stroke="#171717" stroke-width="3" stroke-linecap="round" stroke-linejoin="round"/>
<path d="M681.283 273.727L688.612 263.004" stroke="#171717" stroke-width="3" stroke-linecap="round" stroke-linejoin="round"/>
<path d="M709.165 261.588C709.165 261.588 703.492 243.394 692.156 241.506" stroke="#171717" stroke-width="3" stroke-linecap="round" stroke-linejoin="round"/>
<path d="M704.677 301.51C704.677 301.51 705.953 305.777 707.318 312.374C711.104 330.648 715.542 366.815 695.229 379.828" stroke="#171717" stroke-width="3" stroke-linecap="round" stroke-linejoin="round"/>
<path d="M652.093 761.436C653.96 762.854 655.473 764.686 656.514 766.787C657.555 768.887 658.095 771.2 658.093 773.545L627.97 847.845C625.219 856.58 621.143 863.087 612.728 863.087H415.975C407.561 863.087 401.275 860.287 401.275 851.871L430.855 773.543C433.676 764.717 437.682 758.301 446.096 758.301H642.846C646.19 758.297 649.441 759.399 652.093 761.436Z" stroke="#171717" stroke-width="3" stroke-linecap="round" stroke-linejoin="round"/>
<path d="M401.277 851.872L603.266 851.862C603.266 851.862 613.538 852.284 616.379 846.662C620.235 839.021 652.094 761.436 652.094 761.436" stroke="#171717" stroke-width="3" stroke-linecap="round" stroke-linejoin="round"/>
<path d="M769.07 625.745L757.774 586.445L737.401 515.557L705.502 524.775L725.112 591.305L737.191 632.271" stroke="#171717" stroke-width="3" stroke-linecap="round" stroke-linejoin="round"/>
<path d="M762.082 667.563L769.642 675.024L770.817 656.83L770.847 656.318" stroke="#171717" stroke-width="3" stroke-linecap="round" stroke-linejoin="round"/>
<path d="M708.182 643.406C717.409 649.099 720.723 650.006 731.276 652.473C741.829 654.94 753.076 655.073 763.396 651.76C767.006 650.656 770.333 648.779 773.145 646.26C774.638 644.897 775.81 643.22 776.579 641.35C777.023 640.226 777.271 639.034 777.312 637.826C777.493 632.655 773.738 628.197 769.069 625.747C768.191 625.286 767.278 624.897 766.338 624.582C760.504 622.624 760.203 633.197 746.256 632.976C743.221 632.951 740.192 632.717 737.19 632.276C728.143 630.911 722.269 627.637 713.503 623.129" stroke="#171717" stroke-width="3" stroke-linecap="round" stroke-linejoin="round"/>
<path d="M757.873 586.416C795.873 590.683 785.315 636.991 776.579 641.349" stroke="#171717" stroke-width="3" stroke-linecap="round" stroke-linejoin="round"/>
<path d="M708.182 660.617C720.873 670.517 749.831 669.764 764.621 661.631C766.954 660.409 769.053 658.784 770.821 656.831C772.122 655.44 773.025 653.724 773.434 651.864C773.844 650.004 773.746 648.067 773.15 646.258V646.248" stroke="#171717" stroke-width="3" stroke-linecap="round" stroke-linejoin="round"/>
<path d="M676.5 674.211C693.479 684.051 745.581 683.198 761.053 667.143C762.612 665.573 763.826 663.696 764.618 661.63C764.638 661.57 764.658 661.52 764.678 661.459" stroke="#171717" stroke-width="3" stroke-linecap="round" stroke-linejoin="round"/>
<path d="M681.242 603.765C705.5 597.771 709.566 594.765 723.222 591.865" stroke="#171717" stroke-width="3" stroke-linecap="round" stroke-linejoin="round"/>
<path d="M648.921 683.309L642.074 713.301H899.699L926.277 515.557L672.196 499.604L659.785 574.276" stroke="#171717" stroke-width="3" stroke-linecap="round" stroke-linejoin="round"/>
<path d="M769.641 675.024C769.641 675.024 879.858 668.998 871 622.229C862.142 575.46 822.805 592.81 792.683 565.881C762.561 538.952 791.257 522.906 791.257 522.906" stroke="#171717" stroke-width="3" stroke-linecap="round" stroke-linejoin="round"/>
<path d="M614.432 822.453L623.64 800.715" stroke="#171717" stroke-width="3" stroke-linecap="round" stroke-linejoin="round"/>
<path d="M627.184 793.626L629.785 787.25" stroke="#171717" stroke-width="3" stroke-linecap="round" stroke-linejoin="round"/>
<path d="M467.516 808.797L475.077 788.535" stroke="#171717" stroke-width="3" stroke-linecap="round" stroke-linejoin="round"/>
<path d="M535.451 830.799C535.451 830.799 490.559 839.299 500.007 800.084L471.893 798.668" stroke="#171717" stroke-width="3" stroke-linecap="round" stroke-linejoin="round"/>
<path d="M549.158 778.354C549.158 778.354 504.265 764.176 500.008 800.082" stroke="#171717" stroke-width="3" stroke-linecap="round" stroke-linejoin="round"/>
<path d="M518.794 784.259L512.057 818.518C512.057 818.518 568.757 831.571 572.071 806.027C575.385 780.483 518.794 784.259 518.794 784.259Z" stroke="#171717" stroke-width="3" stroke-linecap="round" stroke-linejoin="round"/>
<path d="M431.609 829.882L449.561 778.734" stroke="#171717" stroke-width="3" stroke-linecap="round" stroke-linejoin="round"/>
<path d="M587.491 238.876C587.491 238.876 576.215 230.642 581.591 226.476C586.967 222.31 594.885 229.72 594.885 229.72" stroke="#171717" stroke-width="3" stroke-linecap="round" stroke-linejoin="round"/>
<path d="M692.156 300.185C692.156 300.185 698.702 305.436 703.803 301.49C704.3 301.108 704.752 300.67 705.149 300.185C710.349 293.949 705.149 284.672 705.149 284.672" stroke="#171717" stroke-width="3" stroke-linecap="round" stroke-linejoin="round"/>
<path d="M873.94 201.945C899.085 229.518 908.829 270.302 898.863 306.263C895.69 317.714 889.9 329.468 879.263 334.757C868.626 340.046 852.727 335.012 850.863 323.276C849.236 313.038 860.063 303.482 870.334 304.876C880.605 306.27 888.296 316.549 888.508 326.914C888.72 337.279 882.555 347.079 874.138 353.131C861.179 362.446 843.244 364.16 832.317 375.791C821.835 386.948 821.462 406.129 831.501 417.684C841.54 429.239 860.586 431.551 873.101 422.731" stroke="#171717" stroke-width="3" stroke-linecap="round" stroke-linejoin="round"/>
<path d="M802.87 384.819L798.211 370.064" stroke="#171717" stroke-width="3" stroke-linecap="round" stroke-linejoin="round"/>
<path d="M792.326 381.6L808.273 370.969" stroke="#171717" stroke-width="3" stroke-linecap="round" stroke-linejoin="round"/>
<path d="M922.029 289.109L933.723 278.479" stroke="#171717" stroke-width="3" stroke-linecap="round" stroke-linejoin="round"/>
<path d="M930.727 290.065L924.291 278.398" stroke="#171717" stroke-width="3" stroke-linecap="round" stroke-linejoin="round"/>
<path d="M817.842 138.145L824.221 129.639" stroke="#171717" stroke-width="3" stroke-linecap="round" stroke-linejoin="round"/>
<path d="M824.22 137.079C821.858 133.917 818.48 131.665 814.652 130.701" stroke="#171717" stroke-width="3" stroke-linecap="round" stroke-linejoin="round"/>
<path d="M688.186 812.532L776.336 801.199" stroke="#171717" stroke-width="3" stroke-linecap="round" stroke-linejoin="round"/>
<path d="M684.926 783.438L700.687 771.498" stroke="#171717" stroke-width="3" stroke-linecap="round" stroke-linejoin="round"/>
<path d="M683.111 844.799L693.811 854.286" stroke="#171717" stroke-width="3" stroke-linecap="round" stroke-linejoin="round"/>
<path d="M438.464 329.7C438.464 329.7 425.189 287.573 453.539 267.256C481.889 246.939 542.839 290.826 570.484 257.188" stroke="white" stroke-opacity="0.96" stroke-width="3" stroke-linecap="round" stroke-linejoin="round"/>
<path d="M866.546 271.737L862.317 278.071C862.189 278.262 862.006 278.41 861.792 278.494C861.578 278.578 861.343 278.594 861.119 278.541C860.896 278.487 860.694 278.367 860.541 278.195C860.388 278.023 860.291 277.808 860.264 277.58L859.364 270.017C859.338 269.796 859.246 269.588 859.102 269.419C858.957 269.25 858.766 269.128 858.552 269.068L851.217 266.999C850.997 266.936 850.801 266.807 850.656 266.63C850.511 266.452 850.424 266.235 850.406 266.007C850.388 265.779 850.44 265.55 850.555 265.352C850.67 265.154 850.843 264.996 851.05 264.899L857.963 261.699C858.165 261.606 858.334 261.455 858.45 261.265C858.566 261.076 858.624 260.856 858.615 260.634L858.315 253.023C858.306 252.793 858.367 252.566 858.491 252.373C858.614 252.179 858.795 252.028 859.007 251.939C859.219 251.851 859.453 251.83 859.678 251.879C859.903 251.929 860.107 252.045 860.263 252.214L865.441 257.801C865.592 257.964 865.788 258.079 866.004 258.13C866.22 258.182 866.446 258.169 866.655 258.092L873.8 255.453C874.015 255.374 874.249 255.363 874.471 255.421C874.693 255.479 874.892 255.603 875.041 255.777C875.19 255.951 875.283 256.167 875.306 256.395C875.33 256.623 875.283 256.852 875.172 257.053L871.458 263.703C871.35 263.897 871.302 264.119 871.32 264.341C871.337 264.562 871.42 264.774 871.558 264.948L876.275 270.928C876.417 271.108 876.5 271.328 876.514 271.557C876.528 271.787 876.471 272.015 876.351 272.211C876.231 272.407 876.054 272.561 875.844 272.654C875.634 272.746 875.4 272.772 875.175 272.728L867.703 271.251C867.484 271.208 867.257 271.231 867.05 271.318C866.844 271.404 866.669 271.55 866.546 271.737V271.737Z" fill="#171717"/>
<path d="M572.566 384.888C573.816 382.442 575.823 380.466 578.288 379.256" stroke="#171717" stroke-width="3" stroke-linecap="round" stroke-linejoin="round"/>
<path d="M553.238 363.174C554.508 360.906 556.288 358.965 558.438 357.504" stroke="#171717" stroke-width="3" stroke-linecap="round" stroke-linejoin="round"/>
<path d="M529.668 344.785C531.718 341.917 534.434 339.59 537.582 338.004" stroke="#171717" stroke-width="3" stroke-linecap="round" stroke-linejoin="round"/>
<path d="M510.656 328.138L515.384 324.361" stroke="#171717" stroke-width="3" stroke-linecap="round" stroke-linejoin="round"/>
<path d="M623.014 685.409L632.992 574.375" stroke="#171717" stroke-width="3" stroke-linecap="round" stroke-linejoin="round"/>
<path d="M580.244 672.26L589.228 662.344" stroke="#171717" stroke-width="3" stroke-linecap="round" stroke-linejoin="round"/>
<path d="M583.931 608.898L574.951 600.398" stroke="#171717" stroke-width="3" stroke-linecap="round" stroke-linejoin="round"/>
<path d="M511.186 643.843L518.746 633.443" stroke="#171717" stroke-width="3" stroke-linecap="round" stroke-linejoin="round"/>
<path d="M477.637 599.427C474.145 597.569 471.085 594.993 468.66 591.867" stroke="#171717" stroke-width="3" stroke-linecap="round" stroke-linejoin="round"/>
<path d="M410.588 646.706C412.906 642.988 415.686 639.579 418.862 636.561" stroke="#171717" stroke-width="3" stroke-linecap="round" stroke-linejoin="round"/>
<path d="M410.321 577.6C408.84 573.415 406.485 569.593 403.414 566.387" stroke="#171717" stroke-width="3" stroke-linecap="round" stroke-linejoin="round"/>
<path d="M352.445 604.161C353.478 601.346 355.464 598.981 358.057 597.477" stroke="#171717" stroke-width="3" stroke-linecap="round" stroke-linejoin="round"/>
<path d="M351.284 549.517L342.348 539.557" stroke="#171717" stroke-width="3" stroke-linecap="round" stroke-linejoin="round"/>
<path d="M363.256 485.998L370.862 476.111" stroke="#171717" stroke-width="3" stroke-linecap="round" stroke-linejoin="round"/>
<path d="M344.391 445.864L340.611 435.469" stroke="#171717" stroke-width="3" stroke-linecap="round" stroke-linejoin="round"/>
<path d="M402.879 431.973L414.962 425.381" stroke="#171717" stroke-width="3" stroke-linecap="round" stroke-linejoin="round"/>
<path d="M404.046 383.936L401.99 375.471" stroke="#171717" stroke-width="3" stroke-linecap="round" stroke-linejoin="round"/>
<path d="M452.111 445.844L460.076 441.469" stroke="#171717" stroke-width="3" stroke-linecap="round" stroke-linejoin="round"/>
<path d="M484.769 367.421L483.338 357.973" stroke="#171717" stroke-width="3" stroke-linecap="round" stroke-linejoin="round"/>
<path d="M562.637 446.798L564.065 434.986" stroke="#171717" stroke-width="3" stroke-linecap="round" stroke-linejoin="round"/>
<path d="M526.778 421.766C523.084 420.753 519.575 419.158 516.383 417.041" stroke="#171717" stroke-width="3" stroke-linecap="round" stroke-linejoin="round"/>
<path d="M529.545 504.912L531.732 494.48" stroke="#171717" stroke-width="3" stroke-linecap="round" stroke-linejoin="round"/>
<path d="M478.564 500.113L488.004 498.176" stroke="#171717" stroke-width="3" stroke-linecap="round" stroke-linejoin="round"/>
<path d="M491.813 553.123L488.506 542.723" stroke="#171717" stroke-width="3" stroke-linecap="round" stroke-linejoin="round"/>
<path d="M560.387 554.114L567.93 544.65" stroke="#171717" stroke-width="3" stroke-linecap="round" stroke-linejoin="round"/>
<path d="M586.675 508.777L581.549 500.699" stroke="#171717" stroke-width="3" stroke-linecap="round" stroke-linejoin="round"/>
<path d="M696.58 558.124C694.162 554.181 692.545 549.8 691.821 545.231C691.097 540.662 691.28 535.996 692.36 531.498" stroke="#171717" stroke-width="3" stroke-linecap="round" stroke-linejoin="round"/>
<path d="M583.759 235.6C583.759 235.6 569.068 281.669 537.883 277.417C506.698 273.165 450.001 267.493 439.365 312.854C428.729 358.215 489.805 398.613 479.765 452.479C473.765 484.697 400.444 532.869 339.428 520.52C278.412 508.171 181.015 449.644 145.758 543.2C110.501 636.756 40.3335 799.062 418.389 804.309" stroke="#171717" stroke-width="3" stroke-linecap="round" stroke-linejoin="round"/>
<path d="M695.226 379.83C667.584 397.549 465.826 325.374 479.766 423.655" stroke="#171717" stroke-width="3" stroke-linecap="round" stroke-linejoin="round"/>
<g opacity="0.1">
<path d="M723.453 255.891C724.084 253.079 722.453 251.812 720.628 249.935C718.245 247.646 716.062 245.156 714.106 242.492C710.25 236.965 707.938 230.51 707.406 223.792C707.159 220.357 703.876 216.855 700.106 218.228C677.006 226.634 651.329 227.028 628.279 218.322C616.979 214.053 605.955 208.492 593.602 208.369C582.534 208.259 571.834 212.333 565.066 221.269C559.448 228.685 571.987 238.407 578.023 231.269C584.041 224.151 592.489 222.893 601.369 224.857C613.269 227.489 624.141 233.391 636.052 236.075C659.06 241.357 683.174 238.788 704.552 228.775L696.075 225.327C697.462 234.048 701.269 242.204 707.061 248.868C708.726 250.791 721.78 263.368 723.461 255.897L723.453 255.891Z" fill="#171717"/>
</g>
<g opacity="0.1">
<path d="M586.236 261.165C580.953 263.327 576.974 268.108 573.3 272.331C568.976 277.302 564.677 282.265 560.476 287.343C552.065 297.51 543.746 307.747 535.519 318.056C528.801 326.467 540.769 335.88 547.299 327.145C555.002 316.84 562.619 306.477 570.15 296.054C573.812 290.975 577.399 285.873 580.906 280.688C584.184 275.841 588.659 270.342 589.465 264.394C589.696 262.694 588.333 260.307 586.236 261.165V261.165Z" fill="#171717"/>
</g>
<g opacity="0.1">
<path d="M508.678 310.34C504.412 319.758 493.623 323.697 484.253 326.094C471.846 329.268 459.284 331.509 446.965 335.115C421.503 342.57 396.618 352.761 373.805 366.366C328.839 393.183 293.305 433.71 278.785 484.585C271.643 509.608 270.071 535.785 275.679 561.296C281.089 585.904 293.704 608.388 310.771 626.803C348.244 667.239 402.604 685.003 456.24 689.703C527.921 695.995 599.499 681.403 671.228 682.588C682.156 682.768 681.999 666.346 671.228 665.713C608.8 662.044 546.728 674.232 484.291 673.074C431.508 672.095 376.291 661.062 335.391 625.446C317.701 610.038 303.385 590.652 296.125 568.187C288.825 545.587 288.45 521.26 293.085 498.063C302.897 448.952 336.024 408.863 377.674 382.545C402.26 367.009 429.311 355.879 457.257 348.018C478.186 342.131 514.272 340.142 517.757 312.797C518.362 308.058 510.609 306.062 508.673 310.337L508.678 310.34Z" fill="#171717"/>
</g>
<g opacity="0.1">
<path d="M682.182 674.371C684.882 675.629 686.638 676.604 689.65 677.164C692.396 677.675 695.187 678.08 697.964 678.397C703.918 679.02 709.906 679.254 715.891 679.097C726.947 678.907 739.545 678.478 749.822 674.055C751.941 673.143 750.776 669.829 748.687 669.862C737.728 670.033 726.922 672.595 715.887 672.687C704.9 672.779 693.874 670.613 683.006 671.309C681.532 671.409 680.583 673.624 682.178 674.367L682.182 674.371Z" fill="#171717"/>
</g>
</svg>
